Coordinates
version=1
nRows=21
nColumns=33
inDegrees=yes

Units are S.I. units (second, meters, Newtons, ...)
Angles are in degrees.

endheader
time	ground_thorax_rot_x	ground_thorax_rot_y	ground_thorax_rot_z	ground_thorax_tx	ground_thorax_ty	ground_thorax_tz	clav_prot_r	clav_elev_r	scapula_abduction_r	scapula_elevation_r	scapula_upward_rot_r	scapula_winging_r	shoulder_elv_r	plane_of_elev_r	axial_rot_r	elbow_flexion_r	pro_sup_r	wrist_flex_r	wrist_dev_r	clav_prot_l	clav_elev_l	scapula_abduction_l	scapula_elevation_l	scapula_upward_rot_l	scapula_winging_l	shoulder_elv_l	plane_of_elev_l	axial_rot_l	elbow_flexion_l	pro_sup_l	wrist_flex_l	wrist_dev_l
      0.34000000	      1.39669209	     -1.26663118	    -12.22430964	     -0.04481076	      1.05051233	     -0.00275934	    -12.62769712	     -9.10660657	    -12.73770611	     -2.44356142	      5.01372716	      1.21948124	     51.82650463	    -45.19768653	     56.98882867	     58.61065641	     -2.55777179	     14.35494957	      7.32000096	     -7.17263109	     -6.29298257	      6.82026312	     -3.26027854	     -6.33762549	     -2.19686925	     54.13581990	    -49.66837271	    -39.21694739	     60.68965545	      0.31109923	      5.88754150	    -21.15253819
      0.35000000	      1.44574848	     -0.75831420	    -12.37931048	     -0.04519295	      1.04909592	     -0.00258655	    -12.95497073	     -7.87604922	    -12.70275320	     -1.91843001	      6.71142026	      0.41161333	     48.89572310	    -45.39514696	     55.30722184	     57.89824124	     -1.62913883	     14.81898668	      8.08162315	     -6.44399291	     -5.27108489	      4.99316963	     -3.43973397	     -4.26520733	     -1.22136147	     51.14967810	    -50.09651502	    -37.47538298	     60.44137240	      1.66428574	      7.38171976	    -21.74770403
      0.36000000	      1.45970782	     -0.72618866	    -12.39856479	     -0.04505679	      1.04929658	     -0.00251202	    -12.95371224	     -7.88535174	    -12.70174337	     -1.92434452	      6.70541398	      0.41402745	     48.88287731	    -45.39239463	     55.30781006	     57.90852880	     -1.62905688	     14.82011334	      8.07991660	     -6.45048256	     -5.26377017	      5.01287540	     -3.45589294	     -4.29068826	     -1.21767034	     51.12974862	    -50.12747192	    -37.47684237	     60.44192941	      1.66499914	      7.37984664	    -21.74765012
      0.37000000	      1.39839625	     -0.75863538	    -12.41658909	     -0.04461255	      1.04909777	     -0.00245733	    -13.02317607	     -7.93491013	    -12.79585419	     -1.98366874	      6.73980720	      0.43865555	     48.85294368	    -45.52790599	     55.17202811	     58.14145031	     -1.62061198	     14.79809026	      7.89409331	     -6.55766374	     -5.21529903	      5.22814156	     -3.50945343	     -4.32444545	     -1.26503069	     51.04794455	    -50.29948537	    -37.09815260	     60.72019392	      1.60507845	      7.11937786	    -21.75864615
      0.38000000	      1.40850661	     -0.72466856	    -12.41852779	     -0.04446254	      1.04923014	     -0.00238914	    -13.01770334	     -7.94097900	    -12.78769922	     -1.99127713	      6.73817600	      0.44067174	     48.84556597	    -45.51932399	     55.17314795	     58.15118013	     -1.62025051	     14.79828787	      7.89132586	     -6.56252692	     -5.21202185	      5.23939971	     -3.51329126	     -4.33457959	     -1.26143792	     51.04109169	    -50.31282358	    -37.09405940	     60.71941438	      1.60483338	      7.11486460	    -21.75753113
      0.39000000	      1.40401330	     -0.63583023	    -12.39922051	     -0.04439887	      1.04936285	     -0.00240823	    -13.01069575	     -7.94328509	    -12.78973461	     -1.97929457	      6.70612430	      0.44769279	     48.80381247	    -45.54932614	     55.18191004	     58.21796030	     -1.61482592	     14.79293138	      7.85956978	     -6.59549729	     -5.23586569	      5.28953206	     -3.48777469	     -4.31849020	     -1.27868517	     51.03300797	    -50.30389716	    -37.00878182	     60.75818320	      1.59306905	      7.05115728	    -21.75610895
      0.40000000	      1.41560310	     -0.61108731	    -12.39122994	     -0.04424719	      1.04934800	     -0.00233833	    -13.01062180	     -7.95105638	    -12.78175100	     -1.99038566	      6.71777609	      0.44636868	     48.80807647	    -45.53405116	     55.17132553	     58.23187526	     -1.61506103	     14.79265658	      7.85121246	     -6.60034473	     -5.22799884	      5.29966262	     -3.49479345	     -4.31924299	     -1.27954011	     51.03631628	    -50.31683983	    -36.99572042	     60.75739498	      1.59226159	      7.04016942	    -21.75494118
      0.41000000	      1.41512170	     -0.60662033	    -12.38492887	     -0.04402020	      1.04930558	     -0.00224612	    -13.00994406	     -7.95260979	    -12.77949505	     -1.99240219	      6.72092909	      0.44813278	     48.80860619	    -45.52982552	     55.16936576	     58.23510690	     -1.61517550	     14.79287927	      7.84992169	     -6.60075324	     -5.22887302	      5.30035989	     -3.49400167	     -4.31811367	     -1.28014394	     51.03661799	    -50.31563688	    -36.99350688	     60.75848635	      1.59206710	      7.03829384	    -21.75505838
      0.42000000	      1.43549496	     -0.80010175	    -12.68111573	     -0.04404932	      1.04936562	     -0.00219052	    -12.77080663	     -8.16269352	    -12.33170795	     -2.16609264	      6.70831099	      0.49294114	     48.93144128	    -45.61656851	     55.01055866	     58.76398043	     -1.22265153	     14.22521281	      6.72692166	     -6.57182934	     -5.50961675	      5.33465136	     -3.38567151	     -4.71202600	     -1.42808595	     50.83062200	    -50.27356557	    -36.06610550	     60.80482684	      1.86271052	      4.92581787	    -21.73769477
      0.43000000	      1.44503672	     -0.77690177	    -12.64617042	     -0.04395099	      1.04935008	     -0.00214481	    -12.76780130	     -8.16895856	    -12.32153935	     -2.17491701	      6.71749885	      0.49290126	     48.93178283	    -45.59973195	     55.00629790	     58.77481114	     -1.22086888	     14.22649268	      6.72470983	     -6.57329360	     -5.50778073	      5.33558702	     -3.38491173	     -4.70591559	     -1.42587072	     50.83640553	    -50.27285241	    -36.06413620	     60.80576777	      1.86539355	      4.92008902	    -21.73884873
      0.44000000	      1.44756017	     -0.75705719	    -12.61154326	     -0.04385941	      1.04933795	     -0.00210299	    -12.76376795	     -8.17418778	    -12.30912998	     -2.18286738	      6.72706969	      0.49414543	     48.93129797	    -45.58069873	     55.00381292	     58.78870752	     -1.21855547	     14.22886511	      6.72294348	     -6.57371121	     -5.50907287	      5.33276915	     -3.38058133	     -4.69744910	     -1.42319894	     50.84561349	    -50.26752921	    -36.06138037	     60.80301500	      1.86867912	      4.91323659	    -21.73985150
      0.45000000	      1.44874686	     -0.73788223	    -12.57634047	     -0.04379885	      1.04931044	     -0.00205097	    -12.75763522	     -8.18111194	    -12.29230026	     -2.19181211	      6.73630101	      0.49302583	     48.92865759	    -45.55666389	     55.00412593	     58.80747878	     -1.21478547	     14.23277678	      6.72166092	     -6.57179015	     -5.51027730	      5.32531731	     -3.37519493	     -4.68609493	     -1.42238109	     50.86041428	    -50.26087154	    -36.05891137	     60.79352875	      1.87372147	      4.90448891	    -21.74058769
      0.46000000	      1.51959629	     -0.68798939	    -12.19079570	     -0.04409313	      1.04917804	     -0.00184397	    -12.67626289	     -7.87915485	    -12.20203226	     -1.92001862	      6.74606811	      0.36125888	     49.00533215	    -45.61074922	     55.33530346	     59.02475975	     -0.27854879	     14.28098724	      6.49760722	     -6.37489494	     -5.42172282	      5.06052896	     -3.53694292	     -4.88804538	     -1.37081573	     50.97164667	    -50.31635847	    -36.50019996	     60.53387012	      2.86030294	      3.54456911	    -22.27199654
      0.47000000	      1.52030900	     -0.68539631	    -12.18453362	     -0.04383680	      1.04903977	     -0.00179351	    -12.67492715	     -7.88141968	    -12.19879020	     -1.92300152	      6.74939876	      0.36340108	     49.00583469	    -45.60496291	     55.33389477	     59.02624962	     -0.27832078	     14.28133653	      6.49727881	     -6.37415488	     -5.42224956	      5.05896730	     -3.53574118	     -4.88569921	     -1.37242079	     50.97344250	    -50.31399794	    -36.49940808	     60.53365833	      2.86054419	      3.54411584	    -22.27203920
      0.48000000	      1.46713575	     -0.71700109	    -12.30825921	     -0.04407518	      1.04912854	     -0.00162758	    -12.61348742	     -7.96658043	    -12.06681646	     -2.00281938	      6.76745002	      0.37719691	     48.95424189	    -45.41654495	     55.38331174	     59.07371591	     -0.20278969	     14.30567127	      6.50625464	     -6.31656547	     -5.46749822	      4.93979142	     -3.48646159	     -4.86104516	     -1.35548401	     51.06354557	    -50.24003822	    -36.53078710	     60.39934265	      2.92829680	      3.51698190	    -22.27559696
      0.49000000	      1.46836269	     -0.71544563	    -12.30217900	     -0.04383893	      1.04902352	     -0.00159629	    -12.61251358	     -7.96814375	    -12.06394639	     -2.00513834	      6.77104891	      0.37991481	     48.95549071	    -45.41168872	     55.38199605	     59.07425072	     -0.20229037	     14.30597886	      6.50590213	     -6.31628837	     -5.46775324	      4.93806946	     -3.48562646	     -4.85871777	     -1.35593033	     51.06565826	    -50.23776808	    -36.53011601	     60.39937423	      2.92868981	      3.51655081	    -22.27595781
      0.50000000	      1.48138278	     -0.70811609	    -12.27748701	     -0.04390204	      1.04902255	     -0.00153725	    -12.60736846	     -7.98151114	    -12.03891274	     -2.02566366	      6.79768217	      0.37751135	     48.97203317	    -45.37220725	     55.37413824	     59.07565210	     -0.19505331	     14.30969350	      6.50353795	     -6.31109623	     -5.46048365	      4.92293230	     -3.48511531	     -4.84017079	     -1.34864035	     51.09436969	    -50.22986490	    -36.52700196	     60.38651704	      2.93499486	      3.51371675	    -22.27880725
      0.51000000	      1.48107238	     -0.70881965	    -12.27426153	     -0.04368271	      1.04896026	     -0.00151565	    -12.60635515	     -7.98213556	    -12.03601051	     -2.02707859	      6.80044168	      0.37919764	     48.97345617	    -45.36846382	     55.37390739	     59.07583357	     -0.19428197	     14.31014347	      6.50343761	     -6.30986416	     -5.46055103	      4.92004796	     -3.48439070	     -4.83787188	     -1.34920856	     51.09704733	    -50.22762210	    -36.52727306	     60.38542757	      2.93566497	      3.51357416	    -22.27918272
      0.52000000	      1.45250273	     -0.67147250	    -12.43818055	     -0.04348020	      1.04933647	     -0.00130563	    -12.85090709	     -8.21858471	    -12.35087857	     -2.29327616	      6.92761626	      0.47627954	     49.19110625	    -45.05505814	     55.86769466	     58.93916337	      2.44486426	     15.10667847	      6.35032736	     -6.32810195	     -5.55130969	      4.94163747	     -3.40864729	     -4.85769882	     -1.37734786	     51.51239529	    -49.93985431	    -36.99188108	     59.88886352	      4.90958514	      2.96666205	    -23.79665218
      0.53000000	      1.45301648	     -0.67201122	    -12.43516547	     -0.04329374	      1.04930894	     -0.00129981	    -12.84993951	     -8.21846584	    -12.34917713	     -2.29349816	      6.93002373	      0.47823179	     49.19255716	    -45.05305407	     55.86716816	     58.93944329	      2.44505443	     15.10671272	      6.35020325	     -6.32707995	     -5.55062835	      4.93987652	     -3.40829908	     -4.85532287	     -1.37811853	     51.51474652	    -49.93845008	    -36.99145796	     59.88890025	      4.90970893	      2.96659907	    -23.79660921
      0.54000000	      1.46134234	     -0.68954262	    -12.43371117	     -0.04327804	      1.04925007	     -0.00117891	    -12.84348743	     -8.21181289	    -12.32835095	     -2.29457108	      6.95190695	      0.47126990	     49.22160842	    -45.03893483	     55.86618856	     58.93311378	      2.45037607	     15.10776283	      6.34998926	     -6.31699694	     -5.53454724	      4.91549460	     -3.41358097	     -4.83089153	     -1.36444146	     51.55395175	    -49.93491715	    -36.99160061	     59.87824204	      4.91446432	      2.96686733	    -23.79647495
